ply
format ascii 1.0
element vertex 25
property float x
property float y
property float z
property float poly_index
end_header
74.0	60.0	0.75	0
74.0	-10.0	0.75	0
-5.0	-10.0	0.75	0
-5.5	60.0	0.75	0
8.0	44.0	0.75	1
12.0	44.0	0.75	1
10.0	41.0	0.75	1
23.0	36.0	0.75	2
20.0	32.0	0.75	2
23.0	28.0	0.75	2
26.0	32.0	0.75	2
42.0	54.0	0.75	3
57.0	54.0	0.75	3
57.0	49.0	0.75	3
42.0	49.0	0.75	3
24.5	22.0	0.75	4
24.5	2.0	0.75	4
33.0	2.0	0.75	4
33.0	-5.0	0.75	4
46.0	-5.0	0.75	4
46.0	22.0	0.75	4
15.0	36.0	0.75	5
15.0	12.0	0.75	5
7.5	12.0	0.75	5
7.5	36.0	0.75	5




